HIERARCHY
ROOT Hips
{
	OFFSET 0.00000 0.00000 0.00000
	CHANNELS 6 Xposition Yposition Zposition Zrotation Yrotation Xrotation 
	JOINT RightUpLegDummy
	{
		OFFSET 0 0 0
		CHANNELS 3 Zrotation Yrotation Xrotation
		JOINT RightUpLeg
		{
			OFFSET -3.52197 -3.41223 0.04002
			CHANNELS 3 Zrotation Yrotation Xrotation
			JOINT RightLeg
			{
				OFFSET -1.06336 -17.58347 1.60435
				CHANNELS 3 Zrotation Yrotation Xrotation
				JOINT RightFoot
				{
					OFFSET -0.27018 -17.05419 -1.63900
					CHANNELS 3 Zrotation Yrotation Xrotation
					JOINT RightToes
					{
						OFFSET 0.00298 -1.73825 3.34613
						CHANNELS 3 Zrotation Yrotation Xrotation
						End Site
						{
							OFFSET 0.00480 -0.05416 3.85043
						}
					}
				}
			}
		}
	}
	JOINT SpineDummy
	{
		OFFSET 0 0 0
		CHANNELS 3 Zrotation Yrotation Xrotation
		JOINT Spine
		{
			OFFSET 0.00000 4.14613 0.00000
			CHANNELS 3 Zrotation Yrotation Xrotation
			JOINT Spine1
			{
				OFFSET 0.00000 10.93369 0.05002
				CHANNELS 3 Zrotation Yrotation Xrotation
				JOINT HEadDummy
				{
					OFFSET 0 0 0
					CHANNELS 3 Zrotation Yrotation Xrotation
					JOINT Head
					{
						OFFSET 0.00000 5.52901 0.00438
						CHANNELS 3 Zrotation Yrotation Xrotation
						End Site
						{
							OFFSET -0.11417 7.29012 0.98962
						}
					}
				}
				JOINT LeftShoulder1Dummy
				{
					OFFSET 0 0 0
					CHANNELS 3 Zrotation Yrotation Xrotation
					JOINT LeftShoulder1
					{
						OFFSET 3.53937 -0.14262 -0.08662
						CHANNELS 3 Zrotation Yrotation Xrotation
						JOINT LeftArm
						{
							OFFSET 4.04833 -0.00133 0.12681
							CHANNELS 3 Zrotation Yrotation Xrotation
							JOINT LeftForeArm
							{
								OFFSET 9.67557 0.03289 -0.56117
								CHANNELS 3 Zrotation Yrotation Xrotation
								JOINT LeftHand
								{
									OFFSET 10.17679 0.06873 0.40307
									CHANNELS 3 Zrotation Yrotation Xrotation
									End Site
									{
										OFFSET 6.59293 -0.21483 0.59213
									}
								}
							}
						}
					}
				}
				JOINT RightShoulderDummy
				{
					OFFSET 0 0 0
					CHANNELS 3 Zrotation Yrotation Xrotation
					JOINT RightShoulder
					{
						OFFSET -3.53937 -0.14262 -0.08660
						CHANNELS 3 Zrotation Yrotation Xrotation
						JOINT RightArm
						{
							OFFSET -4.04833 -0.00132 0.12683
							CHANNELS 3 Zrotation Yrotation Xrotation
							JOINT RightForeArm
							{
								OFFSET -9.67570 0.03289 -0.56114
								CHANNELS 3 Zrotation Yrotation Xrotation
								JOINT RightHand
								{
									OFFSET -10.17679 0.06867 0.40304
									CHANNELS 3 Zrotation Yrotation Xrotation
									End Site
									{
										OFFSET -6.54841 -0.21495 0.59212
									}
								}
							}
						}
					}
				}
			}
		}
	}
	JOINT LeftUpLegDummy
	{
		OFFSET 0 0 0
		CHANNELS 3 Zrotation Yrotation Xrotation
		JOINT LeftUpLeg
		{
			OFFSET 3.52197 -3.41223 0.04002
			CHANNELS 3 Zrotation Yrotation Xrotation
			JOINT LeftLeg
			{
				OFFSET 1.08359 -17.35354 1.60336
				CHANNELS 3 Zrotation Yrotation Xrotation
				JOINT LeftFoot
				{
					OFFSET 0.24986 -17.28405 -1.63802
					CHANNELS 3 Zrotation Yrotation Xrotation
					JOINT LeftToes
					{
						OFFSET -0.01575 -1.73822 3.34610
						CHANNELS 3 Zrotation Yrotation Xrotation
						End Site
						{
							OFFSET 0.03150 -0.01868 3.85031
						}
					}
				}
			}
		}
	}
}
MOTION
Frames: 7
Frame Time: 0.033333
-50.2158 36.8127 2.0137 179.7220 -32.0560 173.8950 0.0000 0.0000 0.0000 -16.2439 2.5357 -6.8394 2.6712 4.8498 38.8410 6.0078 1.1600 -25.3845 0.0000 0.0000 -0.0000 0.0000 0.0000 0.0000 15.5937 8.1320 7.8741 -19.9118 17.1921 19.9570 0.0000 0.0000 0.0000 -5.0641 7.0935 8.6827 0.0000 0.0000 0.0000 -21.3417 -4.9442 2.7179 -9.5083 -38.5418 -47.9156 179.2639 -66.6552 -169.4610 5.9935 3.3492 -0.1080 0.0000 0.0000 0.0000 5.7475 2.9744 1.0114 75.8551 74.5132 27.0375 0.4477 85.4462 8.3385 -13.0335 8.9840 -1.4804 0.0000 0.0000 0.0000 13.7845 39.2259 -23.3748 -6.1655 -11.4878 31.8531 -3.9483 0.5530 3.7172 -0.0000 0.0000 -0.0000
-50.7493 36.8410 2.3124 -179.3510 -22.1982 175.8030 0.0000 0.0000 0.0000 -16.4976 6.3595 -12.4922 5.1845 7.9205 37.3985 6.2932 1.0852 -23.8243 0.0000 0.0000 -0.0000 0.0000 0.0000 0.0000 14.1990 9.0234 6.3148 -19.2718 16.9429 17.9323 0.0000 0.0000 0.0000 -8.6221 15.3720 9.0718 0.0000 0.0000 0.0000 -18.6863 -4.0175 2.2457 3.0713 -31.2612 -54.3551 -177.7693 -74.2777 -169.9504 -1.2637 4.5569 -0.0178 0.0000 0.0000 0.0000 5.8193 3.8596 1.1452 76.9900 72.8420 31.3235 0.6504 83.8998 7.4651 -13.1870 9.2909 -1.5312 0.0000 0.0000 0.0000 16.8566 41.5353 -21.9827 -3.1046 -6.7973 33.6384 -5.5440 0.6291 1.5609 -0.0000 0.0000 -0.0000
-50.9473 36.7479 2.5362 -177.8950 -16.6158 176.3510 0.0000 0.0000 0.0000 -15.3423 10.6610 -15.1647 4.6052 7.5519 36.5019 6.9849 1.1741 -23.9480 0.0000 0.0000 -0.0000 0.0000 0.0000 0.0000 8.7599 8.8081 3.5336 -12.6839 14.0367 19.0393 0.0000 0.0000 0.0000 -12.5970 23.5692 7.0787 0.0000 0.0000 0.0000 -13.3042 -2.2525 1.4462 17.7481 -27.2552 -58.8203 -13.4454 -78.4264 36.3494 -7.3366 0.6694 0.2343 0.0000 0.0000 0.0000 5.2407 4.3598 1.1739 69.5699 74.6185 27.2467 0.8423 83.9246 7.0959 -12.2606 9.1485 -1.4060 0.0000 0.0000 0.0000 19.5082 40.8348 -21.6580 -0.7638 -3.5519 35.5527 -4.4880 0.4697 0.8321 -0.0000 0.0000 -0.0000
-50.9531 36.6556 2.7001 -175.3580 -19.5925 174.4530 0.0000 0.0000 0.0000 -12.3272 11.6319 -12.1984 1.6531 4.3718 35.5065 7.8585 1.3687 -25.0585 0.0000 0.0000 -0.0000 0.0000 0.0000 0.0000 -1.5633 6.3714 1.7584 1.4145 6.4184 20.6350 0.0000 0.0000 0.0000 -14.4432 29.5681 5.3574 0.0000 0.0000 0.0000 -7.7280 -0.5902 0.8265 32.9441 -27.9867 -58.2862 2.2811 -24.7627 32.6773 -7.0558 -5.6646 0.6545 0.0000 0.0000 0.0000 5.0855 4.4694 1.1770 56.5875 75.1934 16.5088 1.6702 87.0516 8.9876 -9.1907 8.5959 -0.9978 0.0000 0.0000 0.0000 21.2000 34.5417 -23.4240 0.1423 -2.3640 36.7297 -1.9501 0.2372 1.7059 -0.0000 0.0000 -0.0000
-50.9828 36.6794 2.6362 -171.3360 -29.4188 171.6660 0.0000 0.0000 0.0000 -8.0953 7.0661 -6.4465 -1.8755 0.3553 33.3373 8.8376 1.5464 -25.6601 0.0000 0.0000 -0.0000 0.0000 0.0000 0.0000 -9.8855 3.5900 2.2661 14.2804 -1.1375 19.9644 0.0000 0.0000 0.0000 -12.5785 29.5597 6.4260 0.0000 0.0000 0.0000 -3.7192 0.2429 0.5423 46.9199 -33.9732 -61.8210 -5.9310 8.6067 41.1524 -9.8747 -4.5352 0.8200 0.0000 0.0000 0.0000 5.5923 4.4010 1.2072 43.0730 68.3657 2.7078 179.1259 86.4065 -170.6532 -5.6502 7.8977 -0.5582 0.0000 0.0000 0.0000 21.3891 26.7133 -27.9322 -1.3717 -4.1017 36.5556 -0.3401 0.0944 3.4837 -0.0000 0.0000 -0.0000
-51.1161 36.9035 2.2605 -167.3130 -40.2076 170.5090 0.0000 0.0000 0.0000 -4.9350 0.1405 -2.3966 -4.5376 -3.2999 29.4311 9.7817 1.6135 -25.1182 0.0000 0.0000 -0.0000 0.0000 0.0000 0.0000 -10.2147 2.9026 1.2653 16.6074 -2.5852 19.3784 0.0000 0.0000 0.0000 -9.0850 21.9630 8.5319 0.0000 0.0000 0.0000 -1.7262 0.7315 0.4118 55.0298 -41.4576 -74.6053 -4.7347 3.1519 43.6176 -7.2878 -5.2991 0.6436 0.0000 0.0000 0.0000 5.5708 4.0834 1.1598 39.3162 56.1580 -5.9155 -179.6022 77.1360 -165.7794 -3.9397 6.8586 -0.3426 0.0000 0.0000 0.0000 19.1196 23.3537 -33.8885 -5.2489 -9.1503 34.8136 0.5444 0.0006 5.4288 -0.0000 0.0000 -0.0000
-51.2878 37.2555 1.7633 -166.1150 -49.0122 172.3660 0.0000 0.0000 0.0000 -3.8840 -3.8910 -0.7767 -6.6510 -7.2296 25.5338 10.5217 1.5898 -24.0488 0.0000 0.0000 -0.0000 0.0000 0.0000 0.0000 -4.8225 4.9639 -1.7776 9.6713 2.0723 19.8457 0.0000 0.0000 0.0000 -5.5463 9.5794 10.6477 0.0000 0.0000 0.0000 -3.1760 0.1103 0.5443 54.9945 -49.2366 -87.0079 -1.9709 -18.0185 39.6632 -5.8621 -8.4506 0.7057 0.0000 0.0000 0.0000 5.0248 3.7477 1.0710 37.9304 49.7225 -14.8974 -179.1147 67.8214 -161.7874 -3.0073 4.9453 -0.2197 0.0000 0.0000 0.0000 13.3093 23.8156 -39.2679 -9.3589 -16.0938 31.7605 1.4583 -0.1258 7.7248 -0.0000 0.0000 -0.0000
